<mxfile host="65bd71144e">
    <diagram id="2gUTALILTtQlkb_3UEQx" name="第 1 页">
        <mxGraphModel dx="601" dy="424" grid="0" gridSize="10" guides="1" tooltips="1" connect="1" arrows="1" fold="1" page="1" pageScale="1" pageWidth="10000" pageHeight="10000" background="none" math="0" shadow="0">
            <root>
                <mxCell id="0"/>
                <mxCell id="1" parent="0"/>
                <mxCell id="2" value="" style="group;" vertex="1" connectable="0" parent="1">
                    <mxGeometry x="600.0000000000005" y="360" width="80" height="40" as="geometry"/>
                </mxCell>
                <mxCell id="3" value="a" style="whiteSpace=wrap;html=1;aspect=fixed;fontFamily=Verdana;fontSize=18;" vertex="1" parent="2">
                    <mxGeometry width="40" height="40" as="geometry"/>
                </mxCell>
                <mxCell id="4" value="b" style="whiteSpace=wrap;html=1;aspect=fixed;fontFamily=Verdana;fontSize=18;" vertex="1" parent="2">
                    <mxGeometry x="40" width="40" height="40" as="geometry"/>
                </mxCell>
                <mxCell id="6" value="" style="group;" vertex="1" connectable="0" parent="1">
                    <mxGeometry x="680.0000000000005" y="360" width="80" height="40" as="geometry"/>
                </mxCell>
                <mxCell id="7" value="c" style="whiteSpace=wrap;html=1;aspect=fixed;fontFamily=Verdana;fontSize=18;" vertex="1" parent="6">
                    <mxGeometry width="40" height="40" as="geometry"/>
                </mxCell>
                <mxCell id="8" value="d" style="whiteSpace=wrap;html=1;aspect=fixed;fontFamily=Verdana;fontSize=18;" vertex="1" parent="6">
                    <mxGeometry x="40" width="40" height="40" as="geometry"/>
                </mxCell>
                <mxCell id="9" value="" style="group;" vertex="1" connectable="0" parent="1">
                    <mxGeometry x="760.0000000000005" y="360" width="80" height="40" as="geometry"/>
                </mxCell>
                <mxCell id="10" value="e" style="whiteSpace=wrap;html=1;aspect=fixed;fontFamily=Verdana;fontSize=18;" vertex="1" parent="9">
                    <mxGeometry width="40" height="40" as="geometry"/>
                </mxCell>
                <mxCell id="11" value="f" style="whiteSpace=wrap;html=1;aspect=fixed;fontFamily=Verdana;fontSize=18;" vertex="1" parent="9">
                    <mxGeometry x="40" width="40" height="40" as="geometry"/>
                </mxCell>
                <mxCell id="12" value="" style="group;" vertex="1" connectable="0" parent="1">
                    <mxGeometry x="840.0000000000005" y="360" width="80" height="40" as="geometry"/>
                </mxCell>
                <mxCell id="13" value="g" style="whiteSpace=wrap;html=1;aspect=fixed;fontFamily=Verdana;fontSize=18;" vertex="1" parent="12">
                    <mxGeometry width="40" height="40" as="geometry"/>
                </mxCell>
                <mxCell id="14" value="h" style="whiteSpace=wrap;html=1;aspect=fixed;fontFamily=Verdana;fontSize=18;" vertex="1" parent="12">
                    <mxGeometry x="40" width="40" height="40" as="geometry"/>
                </mxCell>
                <mxCell id="45" value="" style="group;rotation=90;" vertex="1" connectable="0" parent="1">
                    <mxGeometry x="420.00000000000045" y="540" width="320" height="40" as="geometry"/>
                </mxCell>
                <mxCell id="33" value="" style="group;rotation=90;" vertex="1" connectable="0" parent="45">
                    <mxGeometry x="120" y="-120" width="80" height="40" as="geometry"/>
                </mxCell>
                <mxCell id="34" value="a" style="whiteSpace=wrap;html=1;aspect=fixed;fontFamily=Verdana;fontSize=18;rotation=90;" vertex="1" parent="33">
                    <mxGeometry x="20" y="-20" width="40" height="40" as="geometry"/>
                </mxCell>
                <mxCell id="35" value="b" style="whiteSpace=wrap;html=1;aspect=fixed;fontFamily=Verdana;fontSize=18;rotation=90;" vertex="1" parent="33">
                    <mxGeometry x="20" y="20" width="40" height="40" as="geometry"/>
                </mxCell>
                <mxCell id="36" value="" style="group;rotation=90;" vertex="1" connectable="0" parent="45">
                    <mxGeometry x="120" y="-40" width="80" height="40" as="geometry"/>
                </mxCell>
                <mxCell id="37" value="c" style="whiteSpace=wrap;html=1;aspect=fixed;fontFamily=Verdana;fontSize=18;rotation=90;" vertex="1" parent="36">
                    <mxGeometry x="20" y="-20" width="40" height="40" as="geometry"/>
                </mxCell>
                <mxCell id="38" value="d" style="whiteSpace=wrap;html=1;aspect=fixed;fontFamily=Verdana;fontSize=18;rotation=90;" vertex="1" parent="36">
                    <mxGeometry x="20" y="20" width="40" height="40" as="geometry"/>
                </mxCell>
                <mxCell id="39" value="" style="group;rotation=90;" vertex="1" connectable="0" parent="45">
                    <mxGeometry x="120" y="40" width="80" height="40" as="geometry"/>
                </mxCell>
                <mxCell id="40" value="e" style="whiteSpace=wrap;html=1;aspect=fixed;fontFamily=Verdana;fontSize=18;rotation=90;" vertex="1" parent="39">
                    <mxGeometry x="20" y="-20" width="40" height="40" as="geometry"/>
                </mxCell>
                <mxCell id="41" value="f" style="whiteSpace=wrap;html=1;aspect=fixed;fontFamily=Verdana;fontSize=18;rotation=90;" vertex="1" parent="39">
                    <mxGeometry x="20" y="20" width="40" height="40" as="geometry"/>
                </mxCell>
                <mxCell id="42" value="" style="group;rotation=90;" vertex="1" connectable="0" parent="45">
                    <mxGeometry x="120" y="120" width="80" height="40" as="geometry"/>
                </mxCell>
                <mxCell id="43" value="g" style="whiteSpace=wrap;html=1;aspect=fixed;fontFamily=Verdana;fontSize=18;rotation=90;" vertex="1" parent="42">
                    <mxGeometry x="20" y="-20" width="40" height="40" as="geometry"/>
                </mxCell>
                <mxCell id="44" value="h" style="whiteSpace=wrap;html=1;aspect=fixed;fontFamily=Verdana;fontSize=18;rotation=90;" vertex="1" parent="42">
                    <mxGeometry x="20" y="20" width="40" height="40" as="geometry"/>
                </mxCell>
                <mxCell id="46" value="4" style="group;" vertex="1" connectable="0" parent="1">
                    <mxGeometry x="600.0000000000005" y="400" width="80" height="40" as="geometry"/>
                </mxCell>
                <mxCell id="47" value="&lt;span style=&quot;font-family: Helvetica; font-size: 12px;&quot;&gt;∞&lt;/span&gt;" style="whiteSpace=wrap;html=1;aspect=fixed;fontFamily=Verdana;fontSize=18;" vertex="1" parent="46">
                    <mxGeometry width="40" height="40" as="geometry"/>
                </mxCell>
                <mxCell id="48" value="4" style="whiteSpace=wrap;html=1;aspect=fixed;fontFamily=Verdana;fontSize=18;" vertex="1" parent="46">
                    <mxGeometry x="40" width="40" height="40" as="geometry"/>
                </mxCell>
                <mxCell id="49" value="" style="group;" vertex="1" connectable="0" parent="1">
                    <mxGeometry x="680.0000000000005" y="400" width="80" height="40" as="geometry"/>
                </mxCell>
                <mxCell id="50" value="3" style="whiteSpace=wrap;html=1;aspect=fixed;fontFamily=Verdana;fontSize=18;" vertex="1" parent="49">
                    <mxGeometry width="40" height="40" as="geometry"/>
                </mxCell>
                <mxCell id="51" value="&lt;span style=&quot;font-family: Helvetica; font-size: 12px;&quot;&gt;∞&lt;/span&gt;" style="whiteSpace=wrap;html=1;aspect=fixed;fontFamily=Verdana;fontSize=18;" vertex="1" parent="49">
                    <mxGeometry x="40" width="40" height="40" as="geometry"/>
                </mxCell>
                <mxCell id="52" value="" style="group;" vertex="1" connectable="0" parent="1">
                    <mxGeometry x="760.0000000000005" y="400" width="80" height="40" as="geometry"/>
                </mxCell>
                <mxCell id="53" value="&lt;span style=&quot;font-family: Helvetica; font-size: 12px;&quot;&gt;∞&lt;/span&gt;" style="whiteSpace=wrap;html=1;aspect=fixed;fontFamily=Verdana;fontSize=18;" vertex="1" parent="52">
                    <mxGeometry width="40" height="40" as="geometry"/>
                </mxCell>
                <mxCell id="54" value="&lt;span style=&quot;font-family: Helvetica; font-size: 12px;&quot;&gt;∞&lt;/span&gt;" style="whiteSpace=wrap;html=1;aspect=fixed;fontFamily=Verdana;fontSize=18;" vertex="1" parent="52">
                    <mxGeometry x="40" width="40" height="40" as="geometry"/>
                </mxCell>
                <mxCell id="55" value="" style="group;" vertex="1" connectable="0" parent="1">
                    <mxGeometry x="840.0000000000005" y="400" width="80" height="40" as="geometry"/>
                </mxCell>
                <mxCell id="56" value="&lt;span style=&quot;font-family: Helvetica; font-size: 12px;&quot;&gt;∞&lt;/span&gt;" style="whiteSpace=wrap;html=1;aspect=fixed;fontFamily=Verdana;fontSize=18;" vertex="1" parent="55">
                    <mxGeometry width="40" height="40" as="geometry"/>
                </mxCell>
                <mxCell id="57" value="&lt;span style=&quot;font-family: Helvetica; font-size: 12px;&quot;&gt;∞&lt;/span&gt;" style="whiteSpace=wrap;html=1;aspect=fixed;fontFamily=Verdana;fontSize=18;" vertex="1" parent="55">
                    <mxGeometry x="40" width="40" height="40" as="geometry"/>
                </mxCell>
                <mxCell id="58" value="" style="group;" vertex="1" connectable="0" parent="1">
                    <mxGeometry x="600.0000000000005" y="440" width="80" height="40" as="geometry"/>
                </mxCell>
                <mxCell id="59" value="4" style="whiteSpace=wrap;html=1;aspect=fixed;fontFamily=Verdana;fontSize=18;" vertex="1" parent="58">
                    <mxGeometry width="40" height="40" as="geometry"/>
                </mxCell>
                <mxCell id="60" value="&lt;span style=&quot;font-family: Helvetica; font-size: 12px;&quot;&gt;∞&lt;/span&gt;" style="whiteSpace=wrap;html=1;aspect=fixed;fontFamily=Verdana;fontSize=18;" vertex="1" parent="58">
                    <mxGeometry x="40" width="40" height="40" as="geometry"/>
                </mxCell>
                <mxCell id="61" value="" style="group;" vertex="1" connectable="0" parent="1">
                    <mxGeometry x="680.0000000000005" y="440" width="80" height="40" as="geometry"/>
                </mxCell>
                <mxCell id="62" value="5" style="whiteSpace=wrap;html=1;aspect=fixed;fontFamily=Verdana;fontSize=18;" vertex="1" parent="61">
                    <mxGeometry width="40" height="40" as="geometry"/>
                </mxCell>
                <mxCell id="63" value="5" style="whiteSpace=wrap;html=1;aspect=fixed;fontFamily=Verdana;fontSize=18;" vertex="1" parent="61">
                    <mxGeometry x="40" width="40" height="40" as="geometry"/>
                </mxCell>
                <mxCell id="64" value="" style="group;" vertex="1" connectable="0" parent="1">
                    <mxGeometry x="760.0000000000005" y="440" width="80" height="40" as="geometry"/>
                </mxCell>
                <mxCell id="65" value="9" style="whiteSpace=wrap;html=1;aspect=fixed;fontFamily=Verdana;fontSize=18;" vertex="1" parent="64">
                    <mxGeometry width="40" height="40" as="geometry"/>
                </mxCell>
                <mxCell id="66" value="&lt;span style=&quot;font-family: Helvetica; font-size: 12px;&quot;&gt;∞&lt;/span&gt;" style="whiteSpace=wrap;html=1;aspect=fixed;fontFamily=Verdana;fontSize=18;" vertex="1" parent="64">
                    <mxGeometry x="40" width="40" height="40" as="geometry"/>
                </mxCell>
                <mxCell id="67" value="" style="group;" vertex="1" connectable="0" parent="1">
                    <mxGeometry x="840.0000000000005" y="440" width="80" height="40" as="geometry"/>
                </mxCell>
                <mxCell id="68" value="&lt;span style=&quot;font-family: Helvetica; font-size: 12px;&quot;&gt;∞&lt;/span&gt;" style="whiteSpace=wrap;html=1;aspect=fixed;fontFamily=Verdana;fontSize=18;" vertex="1" parent="67">
                    <mxGeometry width="40" height="40" as="geometry"/>
                </mxCell>
                <mxCell id="69" value="&lt;span style=&quot;font-family: Helvetica; font-size: 12px;&quot;&gt;∞&lt;/span&gt;" style="whiteSpace=wrap;html=1;aspect=fixed;fontFamily=Verdana;fontSize=18;" vertex="1" parent="67">
                    <mxGeometry x="40" width="40" height="40" as="geometry"/>
                </mxCell>
                <mxCell id="70" value="" style="group;" vertex="1" connectable="0" parent="1">
                    <mxGeometry x="600.0000000000005" y="480" width="80" height="40" as="geometry"/>
                </mxCell>
                <mxCell id="71" value="3" style="whiteSpace=wrap;html=1;aspect=fixed;fontFamily=Verdana;fontSize=18;" vertex="1" parent="70">
                    <mxGeometry width="40" height="40" as="geometry"/>
                </mxCell>
                <mxCell id="72" value="5" style="whiteSpace=wrap;html=1;aspect=fixed;fontFamily=Verdana;fontSize=18;" vertex="1" parent="70">
                    <mxGeometry x="40" width="40" height="40" as="geometry"/>
                </mxCell>
                <mxCell id="73" value="" style="group;" vertex="1" connectable="0" parent="1">
                    <mxGeometry x="680.0000000000005" y="480" width="80" height="40" as="geometry"/>
                </mxCell>
                <mxCell id="74" value="&lt;span style=&quot;font-family: Helvetica; font-size: 12px;&quot;&gt;∞&lt;/span&gt;" style="whiteSpace=wrap;html=1;aspect=fixed;fontFamily=Verdana;fontSize=18;" vertex="1" parent="73">
                    <mxGeometry width="40" height="40" as="geometry"/>
                </mxCell>
                <mxCell id="75" value="5" style="whiteSpace=wrap;html=1;aspect=fixed;fontFamily=Verdana;fontSize=18;" vertex="1" parent="73">
                    <mxGeometry x="40" width="40" height="40" as="geometry"/>
                </mxCell>
                <mxCell id="76" value="" style="group;" vertex="1" connectable="0" parent="1">
                    <mxGeometry x="760.0000000000005" y="480" width="80" height="40" as="geometry"/>
                </mxCell>
                <mxCell id="77" value="&lt;span style=&quot;font-family: Helvetica; font-size: 12px;&quot;&gt;∞&lt;/span&gt;" style="whiteSpace=wrap;html=1;aspect=fixed;fontFamily=Verdana;fontSize=18;" vertex="1" parent="76">
                    <mxGeometry width="40" height="40" as="geometry"/>
                </mxCell>
                <mxCell id="78" value="&lt;span style=&quot;font-family: Helvetica; font-size: 12px;&quot;&gt;∞&lt;/span&gt;" style="whiteSpace=wrap;html=1;aspect=fixed;fontFamily=Verdana;fontSize=18;" vertex="1" parent="76">
                    <mxGeometry x="40" width="40" height="40" as="geometry"/>
                </mxCell>
                <mxCell id="79" value="" style="group;" vertex="1" connectable="0" parent="1">
                    <mxGeometry x="840.0000000000005" y="480" width="80" height="40" as="geometry"/>
                </mxCell>
                <mxCell id="80" value="&lt;span style=&quot;font-family: Helvetica; font-size: 12px;&quot;&gt;∞&lt;/span&gt;" style="whiteSpace=wrap;html=1;aspect=fixed;fontFamily=Verdana;fontSize=18;" vertex="1" parent="79">
                    <mxGeometry width="40" height="40" as="geometry"/>
                </mxCell>
                <mxCell id="81" value="5" style="whiteSpace=wrap;html=1;aspect=fixed;fontFamily=Verdana;fontSize=18;" vertex="1" parent="79">
                    <mxGeometry x="40" width="40" height="40" as="geometry"/>
                </mxCell>
                <mxCell id="82" value="" style="group;" vertex="1" connectable="0" parent="1">
                    <mxGeometry x="600.0000000000005" y="520" width="80" height="40" as="geometry"/>
                </mxCell>
                <mxCell id="83" value="&lt;span style=&quot;font-family: Helvetica; font-size: 12px;&quot;&gt;∞&lt;/span&gt;" style="whiteSpace=wrap;html=1;aspect=fixed;fontFamily=Verdana;fontSize=18;" vertex="1" parent="82">
                    <mxGeometry width="40" height="40" as="geometry"/>
                </mxCell>
                <mxCell id="84" value="5" style="whiteSpace=wrap;html=1;aspect=fixed;fontFamily=Verdana;fontSize=18;" vertex="1" parent="82">
                    <mxGeometry x="40" width="40" height="40" as="geometry"/>
                </mxCell>
                <mxCell id="85" value="" style="group;" vertex="1" connectable="0" parent="1">
                    <mxGeometry x="680.0000000000005" y="520" width="80" height="40" as="geometry"/>
                </mxCell>
                <mxCell id="86" value="5" style="whiteSpace=wrap;html=1;aspect=fixed;fontFamily=Verdana;fontSize=18;" vertex="1" parent="85">
                    <mxGeometry width="40" height="40" as="geometry"/>
                </mxCell>
                <mxCell id="87" value="&lt;span style=&quot;font-family: Helvetica; font-size: 12px;&quot;&gt;∞&lt;/span&gt;" style="whiteSpace=wrap;html=1;aspect=fixed;fontFamily=Verdana;fontSize=18;" vertex="1" parent="85">
                    <mxGeometry x="40" width="40" height="40" as="geometry"/>
                </mxCell>
                <mxCell id="88" value="" style="group;" vertex="1" connectable="0" parent="1">
                    <mxGeometry x="760.0000000000005" y="520" width="80" height="40" as="geometry"/>
                </mxCell>
                <mxCell id="89" value="7" style="whiteSpace=wrap;html=1;aspect=fixed;fontFamily=Verdana;fontSize=18;" vertex="1" parent="88">
                    <mxGeometry width="40" height="40" as="geometry"/>
                </mxCell>
                <mxCell id="90" value="6" style="whiteSpace=wrap;html=1;aspect=fixed;fontFamily=Verdana;fontSize=18;" vertex="1" parent="88">
                    <mxGeometry x="40" width="40" height="40" as="geometry"/>
                </mxCell>
                <mxCell id="91" value="" style="group;" vertex="1" connectable="0" parent="1">
                    <mxGeometry x="840.0000000000005" y="520" width="80" height="40" as="geometry"/>
                </mxCell>
                <mxCell id="92" value="5" style="whiteSpace=wrap;html=1;aspect=fixed;fontFamily=Verdana;fontSize=18;" vertex="1" parent="91">
                    <mxGeometry width="40" height="40" as="geometry"/>
                </mxCell>
                <mxCell id="93" value="4" style="whiteSpace=wrap;html=1;aspect=fixed;fontFamily=Verdana;fontSize=18;" vertex="1" parent="91">
                    <mxGeometry x="40" width="40" height="40" as="geometry"/>
                </mxCell>
                <mxCell id="94" value="" style="group;" vertex="1" connectable="0" parent="1">
                    <mxGeometry x="600.0000000000005" y="560" width="80" height="40" as="geometry"/>
                </mxCell>
                <mxCell id="95" value="&lt;span style=&quot;font-family: Helvetica; font-size: 12px;&quot;&gt;∞&lt;/span&gt;" style="whiteSpace=wrap;html=1;aspect=fixed;fontFamily=Verdana;fontSize=18;" vertex="1" parent="94">
                    <mxGeometry width="40" height="40" as="geometry"/>
                </mxCell>
                <mxCell id="96" value="9" style="whiteSpace=wrap;html=1;aspect=fixed;fontFamily=Verdana;fontSize=18;" vertex="1" parent="94">
                    <mxGeometry x="40" width="40" height="40" as="geometry"/>
                </mxCell>
                <mxCell id="97" value="" style="group;" vertex="1" connectable="0" parent="1">
                    <mxGeometry x="680.0000000000005" y="560" width="80" height="40" as="geometry"/>
                </mxCell>
                <mxCell id="98" value="&lt;span style=&quot;font-family: Helvetica; font-size: 12px;&quot;&gt;∞&lt;/span&gt;" style="whiteSpace=wrap;html=1;aspect=fixed;fontFamily=Verdana;fontSize=18;" vertex="1" parent="97">
                    <mxGeometry width="40" height="40" as="geometry"/>
                </mxCell>
                <mxCell id="99" value="7" style="whiteSpace=wrap;html=1;aspect=fixed;fontFamily=Verdana;fontSize=18;" vertex="1" parent="97">
                    <mxGeometry x="40" width="40" height="40" as="geometry"/>
                </mxCell>
                <mxCell id="100" value="" style="group;" vertex="1" connectable="0" parent="1">
                    <mxGeometry x="760.0000000000005" y="560" width="80" height="40" as="geometry"/>
                </mxCell>
                <mxCell id="101" value="&lt;span style=&quot;font-family: Helvetica; font-size: 12px;&quot;&gt;∞&lt;/span&gt;" style="whiteSpace=wrap;html=1;aspect=fixed;fontFamily=Verdana;fontSize=18;" vertex="1" parent="100">
                    <mxGeometry width="40" height="40" as="geometry"/>
                </mxCell>
                <mxCell id="102" value="3" style="whiteSpace=wrap;html=1;aspect=fixed;fontFamily=Verdana;fontSize=18;" vertex="1" parent="100">
                    <mxGeometry x="40" width="40" height="40" as="geometry"/>
                </mxCell>
                <mxCell id="103" value="" style="group;" vertex="1" connectable="0" parent="1">
                    <mxGeometry x="840.0000000000005" y="560" width="80" height="40" as="geometry"/>
                </mxCell>
                <mxCell id="104" value="&lt;span style=&quot;font-family: Helvetica; font-size: 12px;&quot;&gt;∞&lt;/span&gt;" style="whiteSpace=wrap;html=1;aspect=fixed;fontFamily=Verdana;fontSize=18;" vertex="1" parent="103">
                    <mxGeometry width="40" height="40" as="geometry"/>
                </mxCell>
                <mxCell id="105" value="&lt;span style=&quot;font-family: Helvetica; font-size: 12px;&quot;&gt;∞&lt;/span&gt;" style="whiteSpace=wrap;html=1;aspect=fixed;fontFamily=Verdana;fontSize=18;" vertex="1" parent="103">
                    <mxGeometry x="40" width="40" height="40" as="geometry"/>
                </mxCell>
                <mxCell id="106" value="" style="group;" vertex="1" connectable="0" parent="1">
                    <mxGeometry x="600.0000000000005" y="600" width="80" height="40" as="geometry"/>
                </mxCell>
                <mxCell id="107" value="&lt;span style=&quot;font-family: Helvetica; font-size: 12px;&quot;&gt;∞&lt;/span&gt;" style="whiteSpace=wrap;html=1;aspect=fixed;fontFamily=Verdana;fontSize=18;" vertex="1" parent="106">
                    <mxGeometry width="40" height="40" as="geometry"/>
                </mxCell>
                <mxCell id="108" value="&lt;span style=&quot;font-family: Helvetica; font-size: 12px;&quot;&gt;∞&lt;/span&gt;" style="whiteSpace=wrap;html=1;aspect=fixed;fontFamily=Verdana;fontSize=18;" vertex="1" parent="106">
                    <mxGeometry x="40" width="40" height="40" as="geometry"/>
                </mxCell>
                <mxCell id="109" value="" style="group;" vertex="1" connectable="0" parent="1">
                    <mxGeometry x="680.0000000000005" y="600" width="80" height="40" as="geometry"/>
                </mxCell>
                <mxCell id="110" value="&lt;span style=&quot;font-family: Helvetica; font-size: 12px;&quot;&gt;∞&lt;/span&gt;" style="whiteSpace=wrap;html=1;aspect=fixed;fontFamily=Verdana;fontSize=18;" vertex="1" parent="109">
                    <mxGeometry width="40" height="40" as="geometry"/>
                </mxCell>
                <mxCell id="111" value="6" style="whiteSpace=wrap;html=1;aspect=fixed;fontFamily=Verdana;fontSize=18;" vertex="1" parent="109">
                    <mxGeometry x="40" width="40" height="40" as="geometry"/>
                </mxCell>
                <mxCell id="112" value="" style="group;" vertex="1" connectable="0" parent="1">
                    <mxGeometry x="760.0000000000005" y="600" width="80" height="40" as="geometry"/>
                </mxCell>
                <mxCell id="113" value="3" style="whiteSpace=wrap;html=1;aspect=fixed;fontFamily=Verdana;fontSize=18;" vertex="1" parent="112">
                    <mxGeometry width="40" height="40" as="geometry"/>
                </mxCell>
                <mxCell id="114" value="&lt;span style=&quot;font-family: Helvetica; font-size: 12px;&quot;&gt;∞&lt;/span&gt;" style="whiteSpace=wrap;html=1;aspect=fixed;fontFamily=Verdana;fontSize=18;" vertex="1" parent="112">
                    <mxGeometry x="40" width="40" height="40" as="geometry"/>
                </mxCell>
                <mxCell id="115" value="" style="group;" vertex="1" connectable="0" parent="1">
                    <mxGeometry x="840.0000000000005" y="600" width="80" height="40" as="geometry"/>
                </mxCell>
                <mxCell id="116" value="2" style="whiteSpace=wrap;html=1;aspect=fixed;fontFamily=Verdana;fontSize=18;" vertex="1" parent="115">
                    <mxGeometry width="40" height="40" as="geometry"/>
                </mxCell>
                <mxCell id="117" value="&lt;span style=&quot;font-family: Helvetica; font-size: 12px;&quot;&gt;∞&lt;/span&gt;" style="whiteSpace=wrap;html=1;aspect=fixed;fontFamily=Verdana;fontSize=18;" vertex="1" parent="115">
                    <mxGeometry x="40" width="40" height="40" as="geometry"/>
                </mxCell>
                <mxCell id="118" value="" style="group;" vertex="1" connectable="0" parent="1">
                    <mxGeometry x="600.0000000000005" y="640" width="80" height="40" as="geometry"/>
                </mxCell>
                <mxCell id="119" value="&lt;span style=&quot;font-family: Helvetica; font-size: 12px;&quot;&gt;∞&lt;/span&gt;" style="whiteSpace=wrap;html=1;aspect=fixed;fontFamily=Verdana;fontSize=18;" vertex="1" parent="118">
                    <mxGeometry width="40" height="40" as="geometry"/>
                </mxCell>
                <mxCell id="120" value="&lt;span style=&quot;font-family: Helvetica; font-size: 12px;&quot;&gt;∞&lt;/span&gt;" style="whiteSpace=wrap;html=1;aspect=fixed;fontFamily=Verdana;fontSize=18;" vertex="1" parent="118">
                    <mxGeometry x="40" width="40" height="40" as="geometry"/>
                </mxCell>
                <mxCell id="121" value="" style="group;" vertex="1" connectable="0" parent="1">
                    <mxGeometry x="680.0000000000005" y="640" width="80" height="40" as="geometry"/>
                </mxCell>
                <mxCell id="122" value="&lt;span style=&quot;font-family: Helvetica; font-size: 12px;&quot;&gt;∞&lt;/span&gt;" style="whiteSpace=wrap;html=1;aspect=fixed;fontFamily=Verdana;fontSize=18;" vertex="1" parent="121">
                    <mxGeometry width="40" height="40" as="geometry"/>
                </mxCell>
                <mxCell id="123" value="5" style="whiteSpace=wrap;html=1;aspect=fixed;fontFamily=Verdana;fontSize=18;" vertex="1" parent="121">
                    <mxGeometry x="40" width="40" height="40" as="geometry"/>
                </mxCell>
                <mxCell id="124" value="" style="group;" vertex="1" connectable="0" parent="1">
                    <mxGeometry x="760.0000000000005" y="640" width="80" height="40" as="geometry"/>
                </mxCell>
                <mxCell id="125" value="&lt;span style=&quot;font-family: Helvetica; font-size: 12px;&quot;&gt;∞&lt;/span&gt;" style="whiteSpace=wrap;html=1;aspect=fixed;fontFamily=Verdana;fontSize=18;" vertex="1" parent="124">
                    <mxGeometry width="40" height="40" as="geometry"/>
                </mxCell>
                <mxCell id="126" value="2" style="whiteSpace=wrap;html=1;aspect=fixed;fontFamily=Verdana;fontSize=18;" vertex="1" parent="124">
                    <mxGeometry x="40" width="40" height="40" as="geometry"/>
                </mxCell>
                <mxCell id="127" value="" style="group;" vertex="1" connectable="0" parent="1">
                    <mxGeometry x="840.0000000000005" y="640" width="80" height="40" as="geometry"/>
                </mxCell>
                <mxCell id="128" value="&lt;span style=&quot;font-family: Helvetica; font-size: 12px;&quot;&gt;∞&lt;/span&gt;" style="whiteSpace=wrap;html=1;aspect=fixed;fontFamily=Verdana;fontSize=18;" vertex="1" parent="127">
                    <mxGeometry width="40" height="40" as="geometry"/>
                </mxCell>
                <mxCell id="129" value="6" style="whiteSpace=wrap;html=1;aspect=fixed;fontFamily=Verdana;fontSize=18;" vertex="1" parent="127">
                    <mxGeometry x="40" width="40" height="40" as="geometry"/>
                </mxCell>
                <mxCell id="130" value="" style="group;" vertex="1" connectable="0" parent="1">
                    <mxGeometry x="600.0000000000005" y="680" width="80" height="40" as="geometry"/>
                </mxCell>
                <mxCell id="131" value="&lt;span style=&quot;font-family: Helvetica; font-size: 12px;&quot;&gt;∞&lt;/span&gt;" style="whiteSpace=wrap;html=1;aspect=fixed;fontFamily=Verdana;fontSize=18;" vertex="1" parent="130">
                    <mxGeometry width="40" height="40" as="geometry"/>
                </mxCell>
                <mxCell id="132" value="&lt;span style=&quot;font-family: Helvetica; font-size: 12px;&quot;&gt;∞&lt;/span&gt;" style="whiteSpace=wrap;html=1;aspect=fixed;fontFamily=Verdana;fontSize=18;" vertex="1" parent="130">
                    <mxGeometry x="40" width="40" height="40" as="geometry"/>
                </mxCell>
                <mxCell id="133" value="" style="group;" vertex="1" connectable="0" parent="1">
                    <mxGeometry x="680.0000000000005" y="680" width="80" height="40" as="geometry"/>
                </mxCell>
                <mxCell id="134" value="5" style="whiteSpace=wrap;html=1;aspect=fixed;fontFamily=Verdana;fontSize=18;" vertex="1" parent="133">
                    <mxGeometry width="40" height="40" as="geometry"/>
                </mxCell>
                <mxCell id="135" value="4" style="whiteSpace=wrap;html=1;aspect=fixed;fontFamily=Verdana;fontSize=18;" vertex="1" parent="133">
                    <mxGeometry x="40" width="40" height="40" as="geometry"/>
                </mxCell>
                <mxCell id="136" value="" style="group;" vertex="1" connectable="0" parent="1">
                    <mxGeometry x="760.0000000000005" y="680" width="80" height="40" as="geometry"/>
                </mxCell>
                <mxCell id="137" value="&lt;span style=&quot;font-family: Helvetica; font-size: 12px;&quot;&gt;∞&lt;/span&gt;" style="whiteSpace=wrap;html=1;aspect=fixed;fontFamily=Verdana;fontSize=18;" vertex="1" parent="136">
                    <mxGeometry width="40" height="40" as="geometry"/>
                </mxCell>
                <mxCell id="138" value="&lt;span style=&quot;font-family: Helvetica; font-size: 12px;&quot;&gt;∞&lt;/span&gt;" style="whiteSpace=wrap;html=1;aspect=fixed;fontFamily=Verdana;fontSize=18;" vertex="1" parent="136">
                    <mxGeometry x="40" width="40" height="40" as="geometry"/>
                </mxCell>
                <mxCell id="139" value="" style="group;" vertex="1" connectable="0" parent="1">
                    <mxGeometry x="840.0000000000005" y="680" width="80" height="40" as="geometry"/>
                </mxCell>
                <mxCell id="140" value="6" style="whiteSpace=wrap;html=1;aspect=fixed;fontFamily=Verdana;fontSize=18;" vertex="1" parent="139">
                    <mxGeometry width="40" height="40" as="geometry"/>
                </mxCell>
                <mxCell id="141" value="&lt;span style=&quot;font-family: Helvetica; font-size: 12px;&quot;&gt;∞&lt;/span&gt;" style="whiteSpace=wrap;html=1;aspect=fixed;fontFamily=Verdana;fontSize=18;" vertex="1" parent="139">
                    <mxGeometry x="40" width="40" height="40" as="geometry"/>
                </mxCell>
                <mxCell id="142" value="" style="group;" vertex="1" connectable="0" parent="1">
                    <mxGeometry x="1160.0000000000005" y="400" width="80" height="40" as="geometry"/>
                </mxCell>
                <mxCell id="143" value="b" style="whiteSpace=wrap;html=1;aspect=fixed;fontFamily=Verdana;fontSize=18;" vertex="1" parent="142">
                    <mxGeometry width="40" height="40" as="geometry"/>
                </mxCell>
                <mxCell id="144" value="" style="whiteSpace=wrap;html=1;aspect=fixed;fontFamily=Verdana;fontSize=18;" vertex="1" parent="142">
                    <mxGeometry x="40" width="40" height="40" as="geometry"/>
                </mxCell>
                <mxCell id="145" value="" style="group;" vertex="1" connectable="0" parent="1">
                    <mxGeometry x="1160.0000000000005" y="450" width="80" height="40" as="geometry"/>
                </mxCell>
                <mxCell id="146" value="c" style="whiteSpace=wrap;html=1;aspect=fixed;fontFamily=Verdana;fontSize=18;" vertex="1" parent="145">
                    <mxGeometry width="40" height="40" as="geometry"/>
                </mxCell>
                <mxCell id="147" value="" style="whiteSpace=wrap;html=1;aspect=fixed;fontFamily=Verdana;fontSize=18;" vertex="1" parent="145">
                    <mxGeometry x="40" width="40" height="40" as="geometry"/>
                </mxCell>
                <mxCell id="148" value="" style="group;" vertex="1" connectable="0" parent="1">
                    <mxGeometry x="1160.0000000000005" y="500" width="80" height="40" as="geometry"/>
                </mxCell>
                <mxCell id="149" value="d" style="whiteSpace=wrap;html=1;aspect=fixed;fontFamily=Verdana;fontSize=18;" vertex="1" parent="148">
                    <mxGeometry width="40" height="40" as="geometry"/>
                </mxCell>
                <mxCell id="150" value="" style="whiteSpace=wrap;html=1;aspect=fixed;fontFamily=Verdana;fontSize=18;" vertex="1" parent="148">
                    <mxGeometry x="40" width="40" height="40" as="geometry"/>
                </mxCell>
                <mxCell id="151" value="" style="group;" vertex="1" connectable="0" parent="1">
                    <mxGeometry x="1160.0000000000005" y="550" width="80" height="40" as="geometry"/>
                </mxCell>
                <mxCell id="152" value="e" style="whiteSpace=wrap;html=1;aspect=fixed;fontFamily=Verdana;fontSize=18;" vertex="1" parent="151">
                    <mxGeometry width="40" height="40" as="geometry"/>
                </mxCell>
                <mxCell id="153" value="" style="whiteSpace=wrap;html=1;aspect=fixed;fontFamily=Verdana;fontSize=18;" vertex="1" parent="151">
                    <mxGeometry x="40" width="40" height="40" as="geometry"/>
                </mxCell>
                <mxCell id="154" value="" style="group;" vertex="1" connectable="0" parent="1">
                    <mxGeometry x="1160.0000000000005" y="600" width="80" height="40" as="geometry"/>
                </mxCell>
                <mxCell id="155" value="f" style="whiteSpace=wrap;html=1;aspect=fixed;fontFamily=Verdana;fontSize=18;" vertex="1" parent="154">
                    <mxGeometry width="40" height="40" as="geometry"/>
                </mxCell>
                <mxCell id="156" value="" style="whiteSpace=wrap;html=1;aspect=fixed;fontFamily=Verdana;fontSize=18;" vertex="1" parent="154">
                    <mxGeometry x="40" width="40" height="40" as="geometry"/>
                </mxCell>
                <mxCell id="157" value="" style="group;" vertex="1" connectable="0" parent="1">
                    <mxGeometry x="1160.0000000000005" y="650" width="80" height="40" as="geometry"/>
                </mxCell>
                <mxCell id="158" value="g" style="whiteSpace=wrap;html=1;aspect=fixed;fontFamily=Verdana;fontSize=18;" vertex="1" parent="157">
                    <mxGeometry width="40" height="40" as="geometry"/>
                </mxCell>
                <mxCell id="159" value="" style="whiteSpace=wrap;html=1;aspect=fixed;fontFamily=Verdana;fontSize=18;" vertex="1" parent="157">
                    <mxGeometry x="40" width="40" height="40" as="geometry"/>
                </mxCell>
                <mxCell id="160" value="a" style="group;" vertex="1" connectable="0" parent="1">
                    <mxGeometry x="1160.0000000000005" y="350" width="80" height="40" as="geometry"/>
                </mxCell>
                <mxCell id="161" value="a" style="whiteSpace=wrap;html=1;aspect=fixed;fontFamily=Verdana;fontSize=18;" vertex="1" parent="160">
                    <mxGeometry width="40" height="40" as="geometry"/>
                </mxCell>
                <mxCell id="162" value="" style="whiteSpace=wrap;html=1;aspect=fixed;fontFamily=Verdana;fontSize=18;" vertex="1" parent="160">
                    <mxGeometry x="40" width="40" height="40" as="geometry"/>
                </mxCell>
                <mxCell id="163" value="" style="group;" vertex="1" connectable="0" parent="1">
                    <mxGeometry x="1160.0000000000005" y="700" width="80" height="40" as="geometry"/>
                </mxCell>
                <mxCell id="164" value="h" style="whiteSpace=wrap;html=1;aspect=fixed;fontFamily=Verdana;fontSize=18;" vertex="1" parent="163">
                    <mxGeometry width="40" height="40" as="geometry"/>
                </mxCell>
                <mxCell id="165" value="" style="whiteSpace=wrap;html=1;aspect=fixed;fontFamily=Verdana;fontSize=18;" vertex="1" parent="163">
                    <mxGeometry x="40" width="40" height="40" as="geometry"/>
                </mxCell>
                <mxCell id="166" value="" style="group;" vertex="1" connectable="0" parent="1">
                    <mxGeometry x="1300.0000000000005" y="350" width="80" height="40" as="geometry"/>
                </mxCell>
                <mxCell id="167" value="b" style="whiteSpace=wrap;html=1;aspect=fixed;fontFamily=Verdana;fontSize=18;" vertex="1" parent="166">
                    <mxGeometry width="40" height="40" as="geometry"/>
                </mxCell>
                <mxCell id="168" value="4" style="whiteSpace=wrap;html=1;aspect=fixed;fontFamily=Verdana;fontSize=18;" vertex="1" parent="166">
                    <mxGeometry x="40" width="40" height="40" as="geometry"/>
                </mxCell>
                <mxCell id="169" value="" style="group;" vertex="1" connectable="0" parent="1">
                    <mxGeometry x="1470.0000000000005" y="350" width="80" height="40" as="geometry"/>
                </mxCell>
                <mxCell id="170" value="c" style="whiteSpace=wrap;html=1;aspect=fixed;fontFamily=Verdana;fontSize=18;" vertex="1" parent="169">
                    <mxGeometry width="40" height="40" as="geometry"/>
                </mxCell>
                <mxCell id="171" value="3" style="whiteSpace=wrap;html=1;aspect=fixed;fontFamily=Verdana;fontSize=18;" vertex="1" parent="169">
                    <mxGeometry x="40" width="40" height="40" as="geometry"/>
                </mxCell>
                <mxCell id="175" value="" style="group;" vertex="1" connectable="0" parent="1">
                    <mxGeometry x="1300.0000000000005" y="400" width="80" height="40" as="geometry"/>
                </mxCell>
                <mxCell id="176" value="a" style="whiteSpace=wrap;html=1;aspect=fixed;fontFamily=Verdana;fontSize=18;" vertex="1" parent="175">
                    <mxGeometry width="40" height="40" as="geometry"/>
                </mxCell>
                <mxCell id="177" value="4" style="whiteSpace=wrap;html=1;aspect=fixed;fontFamily=Verdana;fontSize=18;" vertex="1" parent="175">
                    <mxGeometry x="40" width="40" height="40" as="geometry"/>
                </mxCell>
                <mxCell id="178" value="" style="group;" vertex="1" connectable="0" parent="1">
                    <mxGeometry x="1470.0000000000005" y="400" width="80" height="40" as="geometry"/>
                </mxCell>
                <mxCell id="179" value="c" style="whiteSpace=wrap;html=1;aspect=fixed;fontFamily=Verdana;fontSize=18;" vertex="1" parent="178">
                    <mxGeometry width="40" height="40" as="geometry"/>
                </mxCell>
                <mxCell id="180" value="5" style="whiteSpace=wrap;html=1;aspect=fixed;fontFamily=Verdana;fontSize=18;" vertex="1" parent="178">
                    <mxGeometry x="40" width="40" height="40" as="geometry"/>
                </mxCell>
                <mxCell id="181" value="" style="group;" vertex="1" connectable="0" parent="1">
                    <mxGeometry x="1640.0000000000005" y="400" width="80" height="40" as="geometry"/>
                </mxCell>
                <mxCell id="182" value="d" style="whiteSpace=wrap;html=1;aspect=fixed;fontFamily=Verdana;fontSize=18;" vertex="1" parent="181">
                    <mxGeometry width="40" height="40" as="geometry"/>
                </mxCell>
                <mxCell id="183" value="5" style="whiteSpace=wrap;html=1;aspect=fixed;fontFamily=Verdana;fontSize=18;" vertex="1" parent="181">
                    <mxGeometry x="40" width="40" height="40" as="geometry"/>
                </mxCell>
                <mxCell id="184" value="" style="group;" vertex="1" connectable="0" parent="1">
                    <mxGeometry x="1810.0000000000005" y="400" width="80" height="40" as="geometry"/>
                </mxCell>
                <mxCell id="185" value="e" style="whiteSpace=wrap;html=1;aspect=fixed;fontFamily=Verdana;fontSize=18;" vertex="1" parent="184">
                    <mxGeometry width="40" height="40" as="geometry"/>
                </mxCell>
                <mxCell id="186" value="9" style="whiteSpace=wrap;html=1;aspect=fixed;fontFamily=Verdana;fontSize=18;" vertex="1" parent="184">
                    <mxGeometry x="40" width="40" height="40" as="geometry"/>
                </mxCell>
                <mxCell id="189" value="" style="group;" vertex="1" connectable="0" parent="1">
                    <mxGeometry x="1300.0000000000005" y="450" width="80" height="40" as="geometry"/>
                </mxCell>
                <mxCell id="190" value="a" style="whiteSpace=wrap;html=1;aspect=fixed;fontFamily=Verdana;fontSize=18;" vertex="1" parent="189">
                    <mxGeometry width="40" height="40" as="geometry"/>
                </mxCell>
                <mxCell id="191" value="3" style="whiteSpace=wrap;html=1;aspect=fixed;fontFamily=Verdana;fontSize=18;" vertex="1" parent="189">
                    <mxGeometry x="40" width="40" height="40" as="geometry"/>
                </mxCell>
                <mxCell id="192" value="" style="group;" vertex="1" connectable="0" parent="1">
                    <mxGeometry x="1470.0000000000005" y="450" width="80" height="40" as="geometry"/>
                </mxCell>
                <mxCell id="193" value="b" style="whiteSpace=wrap;html=1;aspect=fixed;fontFamily=Verdana;fontSize=18;" vertex="1" parent="192">
                    <mxGeometry width="40" height="40" as="geometry"/>
                </mxCell>
                <mxCell id="194" value="5" style="whiteSpace=wrap;html=1;aspect=fixed;fontFamily=Verdana;fontSize=18;" vertex="1" parent="192">
                    <mxGeometry x="40" width="40" height="40" as="geometry"/>
                </mxCell>
                <mxCell id="195" value="" style="group;" vertex="1" connectable="0" parent="1">
                    <mxGeometry x="1640.0000000000005" y="450" width="80" height="40" as="geometry"/>
                </mxCell>
                <mxCell id="196" value="d" style="whiteSpace=wrap;html=1;aspect=fixed;fontFamily=Verdana;fontSize=18;" vertex="1" parent="195">
                    <mxGeometry width="40" height="40" as="geometry"/>
                </mxCell>
                <mxCell id="197" value="5" style="whiteSpace=wrap;html=1;aspect=fixed;fontFamily=Verdana;fontSize=18;" vertex="1" parent="195">
                    <mxGeometry x="40" width="40" height="40" as="geometry"/>
                </mxCell>
                <mxCell id="198" value="" style="group;" vertex="1" connectable="0" parent="1">
                    <mxGeometry x="1810.0000000000005" y="450" width="80" height="40" as="geometry"/>
                </mxCell>
                <mxCell id="199" value="h" style="whiteSpace=wrap;html=1;aspect=fixed;fontFamily=Verdana;fontSize=18;" vertex="1" parent="198">
                    <mxGeometry width="40" height="40" as="geometry"/>
                </mxCell>
                <mxCell id="200" value="5" style="whiteSpace=wrap;html=1;aspect=fixed;fontFamily=Verdana;fontSize=18;" vertex="1" parent="198">
                    <mxGeometry x="40" width="40" height="40" as="geometry"/>
                </mxCell>
                <mxCell id="204" value="" style="group;" vertex="1" connectable="0" parent="1">
                    <mxGeometry x="1300.0000000000005" y="500" width="80" height="40" as="geometry"/>
                </mxCell>
                <mxCell id="205" value="c" style="whiteSpace=wrap;html=1;aspect=fixed;fontFamily=Verdana;fontSize=18;" vertex="1" parent="204">
                    <mxGeometry width="40" height="40" as="geometry"/>
                </mxCell>
                <mxCell id="206" value="5" style="whiteSpace=wrap;html=1;aspect=fixed;fontFamily=Verdana;fontSize=18;" vertex="1" parent="204">
                    <mxGeometry x="40" width="40" height="40" as="geometry"/>
                </mxCell>
                <mxCell id="207" value="" style="group;" vertex="1" connectable="0" parent="1">
                    <mxGeometry x="1470.0000000000005" y="500" width="80" height="40" as="geometry"/>
                </mxCell>
                <mxCell id="208" value="b" style="whiteSpace=wrap;html=1;aspect=fixed;fontFamily=Verdana;fontSize=18;" vertex="1" parent="207">
                    <mxGeometry width="40" height="40" as="geometry"/>
                </mxCell>
                <mxCell id="209" value="5" style="whiteSpace=wrap;html=1;aspect=fixed;fontFamily=Verdana;fontSize=18;" vertex="1" parent="207">
                    <mxGeometry x="40" width="40" height="40" as="geometry"/>
                </mxCell>
                <mxCell id="210" value="" style="group;" vertex="1" connectable="0" parent="1">
                    <mxGeometry x="1640.0000000000005" y="500" width="80" height="40" as="geometry"/>
                </mxCell>
                <mxCell id="211" value="e" style="whiteSpace=wrap;html=1;aspect=fixed;fontFamily=Verdana;fontSize=18;" vertex="1" parent="210">
                    <mxGeometry width="40" height="40" as="geometry"/>
                </mxCell>
                <mxCell id="212" value="7" style="whiteSpace=wrap;html=1;aspect=fixed;fontFamily=Verdana;fontSize=18;" vertex="1" parent="210">
                    <mxGeometry x="40" width="40" height="40" as="geometry"/>
                </mxCell>
                <mxCell id="213" value="" style="group;" vertex="1" connectable="0" parent="1">
                    <mxGeometry x="1810.0000000000005" y="500" width="80" height="40" as="geometry"/>
                </mxCell>
                <mxCell id="214" value="f" style="whiteSpace=wrap;html=1;aspect=fixed;fontFamily=Verdana;fontSize=18;" vertex="1" parent="213">
                    <mxGeometry width="40" height="40" as="geometry"/>
                </mxCell>
                <mxCell id="215" value="6" style="whiteSpace=wrap;html=1;aspect=fixed;fontFamily=Verdana;fontSize=18;" vertex="1" parent="213">
                    <mxGeometry x="40" width="40" height="40" as="geometry"/>
                </mxCell>
                <mxCell id="216" value="" style="group;" vertex="1" connectable="0" parent="1">
                    <mxGeometry x="1980.0000000000005" y="500" width="80" height="40" as="geometry"/>
                </mxCell>
                <mxCell id="217" value="g" style="whiteSpace=wrap;html=1;aspect=fixed;fontFamily=Verdana;fontSize=18;" vertex="1" parent="216">
                    <mxGeometry width="40" height="40" as="geometry"/>
                </mxCell>
                <mxCell id="218" value="5" style="whiteSpace=wrap;html=1;aspect=fixed;fontFamily=Verdana;fontSize=18;" vertex="1" parent="216">
                    <mxGeometry x="40" width="40" height="40" as="geometry"/>
                </mxCell>
                <mxCell id="219" value="" style="group;" vertex="1" connectable="0" parent="1">
                    <mxGeometry x="2150.0000000000005" y="500" width="80" height="40" as="geometry"/>
                </mxCell>
                <mxCell id="220" value="h" style="whiteSpace=wrap;html=1;aspect=fixed;fontFamily=Verdana;fontSize=18;" vertex="1" parent="219">
                    <mxGeometry width="40" height="40" as="geometry"/>
                </mxCell>
                <mxCell id="221" value="4" style="whiteSpace=wrap;html=1;aspect=fixed;fontFamily=Verdana;fontSize=18;" vertex="1" parent="219">
                    <mxGeometry x="40" width="40" height="40" as="geometry"/>
                </mxCell>
                <mxCell id="222" value="" style="group;" vertex="1" connectable="0" parent="1">
                    <mxGeometry x="1300.0000000000005" y="550" width="80" height="40" as="geometry"/>
                </mxCell>
                <mxCell id="223" value="b" style="whiteSpace=wrap;html=1;aspect=fixed;fontFamily=Verdana;fontSize=18;" vertex="1" parent="222">
                    <mxGeometry width="40" height="40" as="geometry"/>
                </mxCell>
                <mxCell id="224" value="9" style="whiteSpace=wrap;html=1;aspect=fixed;fontFamily=Verdana;fontSize=18;" vertex="1" parent="222">
                    <mxGeometry x="40" width="40" height="40" as="geometry"/>
                </mxCell>
                <mxCell id="225" value="" style="group;" vertex="1" connectable="0" parent="1">
                    <mxGeometry x="1470.0000000000005" y="550" width="80" height="40" as="geometry"/>
                </mxCell>
                <mxCell id="226" value="d" style="whiteSpace=wrap;html=1;aspect=fixed;fontFamily=Verdana;fontSize=18;" vertex="1" parent="225">
                    <mxGeometry width="40" height="40" as="geometry"/>
                </mxCell>
                <mxCell id="227" value="7" style="whiteSpace=wrap;html=1;aspect=fixed;fontFamily=Verdana;fontSize=18;" vertex="1" parent="225">
                    <mxGeometry x="40" width="40" height="40" as="geometry"/>
                </mxCell>
                <mxCell id="228" value="" style="group;" vertex="1" connectable="0" parent="1">
                    <mxGeometry x="1640" y="550" width="80" height="40" as="geometry"/>
                </mxCell>
                <mxCell id="229" value="f" style="whiteSpace=wrap;html=1;aspect=fixed;fontFamily=Verdana;fontSize=18;" vertex="1" parent="228">
                    <mxGeometry width="40" height="40" as="geometry"/>
                </mxCell>
                <mxCell id="230" value="3" style="whiteSpace=wrap;html=1;aspect=fixed;fontFamily=Verdana;fontSize=18;" vertex="1" parent="228">
                    <mxGeometry x="40" width="40" height="40" as="geometry"/>
                </mxCell>
                <mxCell id="231" value="" style="group;" vertex="1" connectable="0" parent="1">
                    <mxGeometry x="1300.0000000000005" y="600" width="80" height="40" as="geometry"/>
                </mxCell>
                <mxCell id="232" value="e" style="whiteSpace=wrap;html=1;aspect=fixed;fontFamily=Verdana;fontSize=18;" vertex="1" parent="231">
                    <mxGeometry width="40" height="40" as="geometry"/>
                </mxCell>
                <mxCell id="233" value="3" style="whiteSpace=wrap;html=1;aspect=fixed;fontFamily=Verdana;fontSize=18;" vertex="1" parent="231">
                    <mxGeometry x="40" width="40" height="40" as="geometry"/>
                </mxCell>
                <mxCell id="234" value="" style="group;" vertex="1" connectable="0" parent="1">
                    <mxGeometry x="1470.0000000000005" y="600" width="80" height="40" as="geometry"/>
                </mxCell>
                <mxCell id="235" value="d" style="whiteSpace=wrap;html=1;aspect=fixed;fontFamily=Verdana;fontSize=18;" vertex="1" parent="234">
                    <mxGeometry width="40" height="40" as="geometry"/>
                </mxCell>
                <mxCell id="236" value="6" style="whiteSpace=wrap;html=1;aspect=fixed;fontFamily=Verdana;fontSize=18;" vertex="1" parent="234">
                    <mxGeometry x="40" width="40" height="40" as="geometry"/>
                </mxCell>
                <mxCell id="237" value="" style="group;" vertex="1" connectable="0" parent="1">
                    <mxGeometry x="1640.0000000000005" y="600" width="80" height="40" as="geometry"/>
                </mxCell>
                <mxCell id="238" value="g" style="whiteSpace=wrap;html=1;aspect=fixed;fontFamily=Verdana;fontSize=18;" vertex="1" parent="237">
                    <mxGeometry width="40" height="40" as="geometry"/>
                </mxCell>
                <mxCell id="239" value="2" style="whiteSpace=wrap;html=1;aspect=fixed;fontFamily=Verdana;fontSize=18;" vertex="1" parent="237">
                    <mxGeometry x="40" width="40" height="40" as="geometry"/>
                </mxCell>
                <mxCell id="240" value="" style="group;" vertex="1" connectable="0" parent="1">
                    <mxGeometry x="1300.0000000000005" y="650" width="80" height="40" as="geometry"/>
                </mxCell>
                <mxCell id="241" value="f" style="whiteSpace=wrap;html=1;aspect=fixed;fontFamily=Verdana;fontSize=18;" vertex="1" parent="240">
                    <mxGeometry width="40" height="40" as="geometry"/>
                </mxCell>
                <mxCell id="242" value="2" style="whiteSpace=wrap;html=1;aspect=fixed;fontFamily=Verdana;fontSize=18;" vertex="1" parent="240">
                    <mxGeometry x="40" width="40" height="40" as="geometry"/>
                </mxCell>
                <mxCell id="243" value="" style="group;" vertex="1" connectable="0" parent="1">
                    <mxGeometry x="1470.0000000000005" y="650" width="80" height="40" as="geometry"/>
                </mxCell>
                <mxCell id="244" value="d" style="whiteSpace=wrap;html=1;aspect=fixed;fontFamily=Verdana;fontSize=18;" vertex="1" parent="243">
                    <mxGeometry width="40" height="40" as="geometry"/>
                </mxCell>
                <mxCell id="245" value="5" style="whiteSpace=wrap;html=1;aspect=fixed;fontFamily=Verdana;fontSize=18;" vertex="1" parent="243">
                    <mxGeometry x="40" width="40" height="40" as="geometry"/>
                </mxCell>
                <mxCell id="246" value="" style="group;" vertex="1" connectable="0" parent="1">
                    <mxGeometry x="1640.0000000000005" y="650" width="80" height="40" as="geometry"/>
                </mxCell>
                <mxCell id="247" value="h" style="whiteSpace=wrap;html=1;aspect=fixed;fontFamily=Verdana;fontSize=18;" vertex="1" parent="246">
                    <mxGeometry width="40" height="40" as="geometry"/>
                </mxCell>
                <mxCell id="248" value="6" style="whiteSpace=wrap;html=1;aspect=fixed;fontFamily=Verdana;fontSize=18;" vertex="1" parent="246">
                    <mxGeometry x="40" width="40" height="40" as="geometry"/>
                </mxCell>
                <mxCell id="249" value="" style="group;" vertex="1" connectable="0" parent="1">
                    <mxGeometry x="1300.0000000000005" y="700" width="80" height="40" as="geometry"/>
                </mxCell>
                <mxCell id="250" value="c" style="whiteSpace=wrap;html=1;aspect=fixed;fontFamily=Verdana;fontSize=18;" vertex="1" parent="249">
                    <mxGeometry width="40" height="40" as="geometry"/>
                </mxCell>
                <mxCell id="251" value="5" style="whiteSpace=wrap;html=1;aspect=fixed;fontFamily=Verdana;fontSize=18;" vertex="1" parent="249">
                    <mxGeometry x="40" width="40" height="40" as="geometry"/>
                </mxCell>
                <mxCell id="252" value="" style="group;" vertex="1" connectable="0" parent="1">
                    <mxGeometry x="1470.0000000000005" y="700" width="80" height="40" as="geometry"/>
                </mxCell>
                <mxCell id="253" value="d" style="whiteSpace=wrap;html=1;aspect=fixed;fontFamily=Verdana;fontSize=18;" vertex="1" parent="252">
                    <mxGeometry width="40" height="40" as="geometry"/>
                </mxCell>
                <mxCell id="254" value="4" style="whiteSpace=wrap;html=1;aspect=fixed;fontFamily=Verdana;fontSize=18;" vertex="1" parent="252">
                    <mxGeometry x="40" width="40" height="40" as="geometry"/>
                </mxCell>
                <mxCell id="255" value="" style="group;" vertex="1" connectable="0" parent="1">
                    <mxGeometry x="1640.0000000000005" y="700" width="80" height="40" as="geometry"/>
                </mxCell>
                <mxCell id="256" value="g" style="whiteSpace=wrap;html=1;aspect=fixed;fontFamily=Verdana;fontSize=18;" vertex="1" parent="255">
                    <mxGeometry width="40" height="40" as="geometry"/>
                </mxCell>
                <mxCell id="257" value="6" style="whiteSpace=wrap;html=1;aspect=fixed;fontFamily=Verdana;fontSize=18;" vertex="1" parent="255">
                    <mxGeometry x="40" width="40" height="40" as="geometry"/>
                </mxCell>
                <mxCell id="287" style="edgeStyle=none;html=1;" edge="1" parent="1" source="258">
                    <mxGeometry relative="1" as="geometry">
                        <mxPoint x="1470" y="370" as="targetPoint"/>
                    </mxGeometry>
                </mxCell>
                <mxCell id="258" value="" style="whiteSpace=wrap;html=1;aspect=fixed;fontFamily=Verdana;fontSize=18;" vertex="1" parent="1">
                    <mxGeometry x="1380.0000000000005" y="350" width="40" height="40" as="geometry"/>
                </mxCell>
                <mxCell id="288" style="edgeStyle=none;html=1;" edge="1" parent="1" source="259">
                    <mxGeometry relative="1" as="geometry">
                        <mxPoint x="1470" y="420" as="targetPoint"/>
                    </mxGeometry>
                </mxCell>
                <mxCell id="259" value="" style="whiteSpace=wrap;html=1;aspect=fixed;fontFamily=Verdana;fontSize=18;" vertex="1" parent="1">
                    <mxGeometry x="1380.0000000000005" y="400" width="40" height="40" as="geometry"/>
                </mxCell>
                <mxCell id="291" style="edgeStyle=none;html=1;" edge="1" parent="1" source="260">
                    <mxGeometry relative="1" as="geometry">
                        <mxPoint x="1470" y="470" as="targetPoint"/>
                    </mxGeometry>
                </mxCell>
                <mxCell id="260" value="" style="whiteSpace=wrap;html=1;aspect=fixed;fontFamily=Verdana;fontSize=18;" vertex="1" parent="1">
                    <mxGeometry x="1380.0000000000005" y="450" width="40" height="40" as="geometry"/>
                </mxCell>
                <mxCell id="294" style="edgeStyle=none;html=1;" edge="1" parent="1" source="261">
                    <mxGeometry relative="1" as="geometry">
                        <mxPoint x="1470" y="520" as="targetPoint"/>
                    </mxGeometry>
                </mxCell>
                <mxCell id="261" value="" style="whiteSpace=wrap;html=1;aspect=fixed;fontFamily=Verdana;fontSize=18;" vertex="1" parent="1">
                    <mxGeometry x="1380.0000000000005" y="500" width="40" height="40" as="geometry"/>
                </mxCell>
                <mxCell id="299" style="edgeStyle=none;html=1;" edge="1" parent="1" source="262">
                    <mxGeometry relative="1" as="geometry">
                        <mxPoint x="1470" y="570" as="targetPoint"/>
                    </mxGeometry>
                </mxCell>
                <mxCell id="262" value="" style="whiteSpace=wrap;html=1;aspect=fixed;fontFamily=Verdana;fontSize=18;" vertex="1" parent="1">
                    <mxGeometry x="1380.0000000000005" y="550" width="40" height="40" as="geometry"/>
                </mxCell>
                <mxCell id="300" style="edgeStyle=none;html=1;" edge="1" parent="1" source="263">
                    <mxGeometry relative="1" as="geometry">
                        <mxPoint x="1470" y="620" as="targetPoint"/>
                    </mxGeometry>
                </mxCell>
                <mxCell id="263" value="" style="whiteSpace=wrap;html=1;aspect=fixed;fontFamily=Verdana;fontSize=18;" vertex="1" parent="1">
                    <mxGeometry x="1380.0000000000005" y="600" width="40" height="40" as="geometry"/>
                </mxCell>
                <mxCell id="301" style="edgeStyle=none;html=1;" edge="1" parent="1" source="264">
                    <mxGeometry relative="1" as="geometry">
                        <mxPoint x="1470" y="670" as="targetPoint"/>
                    </mxGeometry>
                </mxCell>
                <mxCell id="264" value="" style="whiteSpace=wrap;html=1;aspect=fixed;fontFamily=Verdana;fontSize=18;" vertex="1" parent="1">
                    <mxGeometry x="1380.0000000000005" y="650" width="40" height="40" as="geometry"/>
                </mxCell>
                <mxCell id="302" style="edgeStyle=none;html=1;" edge="1" parent="1" source="265">
                    <mxGeometry relative="1" as="geometry">
                        <mxPoint x="1470" y="720" as="targetPoint"/>
                    </mxGeometry>
                </mxCell>
                <mxCell id="265" value="" style="whiteSpace=wrap;html=1;aspect=fixed;fontFamily=Verdana;fontSize=18;" vertex="1" parent="1">
                    <mxGeometry x="1380.0000000000005" y="700" width="40" height="40" as="geometry"/>
                </mxCell>
                <mxCell id="266" value="&amp;gt;" style="whiteSpace=wrap;html=1;aspect=fixed;fontFamily=Verdana;fontSize=18;" vertex="1" parent="1">
                    <mxGeometry x="1550.0000000000005" y="350" width="40" height="40" as="geometry"/>
                </mxCell>
                <mxCell id="289" style="edgeStyle=none;html=1;" edge="1" parent="1" source="267">
                    <mxGeometry relative="1" as="geometry">
                        <mxPoint x="1640" y="420" as="targetPoint"/>
                    </mxGeometry>
                </mxCell>
                <mxCell id="267" value="" style="whiteSpace=wrap;html=1;aspect=fixed;fontFamily=Verdana;fontSize=18;" vertex="1" parent="1">
                    <mxGeometry x="1550.0000000000005" y="400" width="40" height="40" as="geometry"/>
                </mxCell>
                <mxCell id="292" style="edgeStyle=none;html=1;" edge="1" parent="1" source="268">
                    <mxGeometry relative="1" as="geometry">
                        <mxPoint x="1640" y="470" as="targetPoint"/>
                    </mxGeometry>
                </mxCell>
                <mxCell id="268" value="" style="whiteSpace=wrap;html=1;aspect=fixed;fontFamily=Verdana;fontSize=18;" vertex="1" parent="1">
                    <mxGeometry x="1550.0000000000005" y="450" width="40" height="40" as="geometry"/>
                </mxCell>
                <mxCell id="295" style="edgeStyle=none;html=1;" edge="1" parent="1" source="269">
                    <mxGeometry relative="1" as="geometry">
                        <mxPoint x="1640" y="520" as="targetPoint"/>
                    </mxGeometry>
                </mxCell>
                <mxCell id="269" value="" style="whiteSpace=wrap;html=1;aspect=fixed;fontFamily=Verdana;fontSize=18;" vertex="1" parent="1">
                    <mxGeometry x="1550.0000000000005" y="500" width="40" height="40" as="geometry"/>
                </mxCell>
                <mxCell id="303" style="edgeStyle=none;html=1;" edge="1" parent="1" source="270">
                    <mxGeometry relative="1" as="geometry">
                        <mxPoint x="1640" y="570" as="targetPoint"/>
                    </mxGeometry>
                </mxCell>
                <mxCell id="270" value="" style="whiteSpace=wrap;html=1;aspect=fixed;fontFamily=Verdana;fontSize=18;" vertex="1" parent="1">
                    <mxGeometry x="1550.0000000000005" y="550" width="40" height="40" as="geometry"/>
                </mxCell>
                <mxCell id="304" style="edgeStyle=none;html=1;" edge="1" parent="1" source="271">
                    <mxGeometry relative="1" as="geometry">
                        <mxPoint x="1640" y="620" as="targetPoint"/>
                    </mxGeometry>
                </mxCell>
                <mxCell id="271" value="" style="whiteSpace=wrap;html=1;aspect=fixed;fontFamily=Verdana;fontSize=18;" vertex="1" parent="1">
                    <mxGeometry x="1550.0000000000005" y="600" width="40" height="40" as="geometry"/>
                </mxCell>
                <mxCell id="305" style="edgeStyle=none;html=1;entryX=0;entryY=0.5;entryDx=0;entryDy=0;" edge="1" parent="1" source="272" target="247">
                    <mxGeometry relative="1" as="geometry"/>
                </mxCell>
                <mxCell id="272" value="" style="whiteSpace=wrap;html=1;aspect=fixed;fontFamily=Verdana;fontSize=18;" vertex="1" parent="1">
                    <mxGeometry x="1550.0000000000005" y="650" width="40" height="40" as="geometry"/>
                </mxCell>
                <mxCell id="306" style="edgeStyle=none;html=1;" edge="1" parent="1" source="273">
                    <mxGeometry relative="1" as="geometry">
                        <mxPoint x="1640" y="720" as="targetPoint"/>
                    </mxGeometry>
                </mxCell>
                <mxCell id="273" value="" style="whiteSpace=wrap;html=1;aspect=fixed;fontFamily=Verdana;fontSize=18;" vertex="1" parent="1">
                    <mxGeometry x="1550.0000000000005" y="700" width="40" height="40" as="geometry"/>
                </mxCell>
                <mxCell id="290" style="edgeStyle=none;html=1;" edge="1" parent="1" source="274">
                    <mxGeometry relative="1" as="geometry">
                        <mxPoint x="1810" y="420" as="targetPoint"/>
                    </mxGeometry>
                </mxCell>
                <mxCell id="274" value="" style="whiteSpace=wrap;html=1;aspect=fixed;fontFamily=Verdana;fontSize=18;" vertex="1" parent="1">
                    <mxGeometry x="1720.0000000000005" y="400" width="40" height="40" as="geometry"/>
                </mxCell>
                <mxCell id="293" style="edgeStyle=none;html=1;" edge="1" parent="1" source="275">
                    <mxGeometry relative="1" as="geometry">
                        <mxPoint x="1810" y="470" as="targetPoint"/>
                    </mxGeometry>
                </mxCell>
                <mxCell id="275" value="" style="whiteSpace=wrap;html=1;aspect=fixed;fontFamily=Verdana;fontSize=18;" vertex="1" parent="1">
                    <mxGeometry x="1720.0000000000005" y="450" width="40" height="40" as="geometry"/>
                </mxCell>
                <mxCell id="296" style="edgeStyle=none;html=1;" edge="1" parent="1" source="276">
                    <mxGeometry relative="1" as="geometry">
                        <mxPoint x="1810" y="520" as="targetPoint"/>
                    </mxGeometry>
                </mxCell>
                <mxCell id="276" value="" style="whiteSpace=wrap;html=1;aspect=fixed;fontFamily=Verdana;fontSize=18;" vertex="1" parent="1">
                    <mxGeometry x="1720.0000000000005" y="500" width="40" height="40" as="geometry"/>
                </mxCell>
                <mxCell id="277" value="&amp;gt;" style="whiteSpace=wrap;html=1;aspect=fixed;fontFamily=Verdana;fontSize=18;" vertex="1" parent="1">
                    <mxGeometry x="1720.0000000000005" y="550" width="40" height="40" as="geometry"/>
                </mxCell>
                <mxCell id="278" value="&amp;gt;" style="whiteSpace=wrap;html=1;aspect=fixed;fontFamily=Verdana;fontSize=18;" vertex="1" parent="1">
                    <mxGeometry x="1720.0000000000005" y="600" width="40" height="40" as="geometry"/>
                </mxCell>
                <mxCell id="279" value="&amp;gt;" style="whiteSpace=wrap;html=1;aspect=fixed;fontFamily=Verdana;fontSize=18;" vertex="1" parent="1">
                    <mxGeometry x="1720.0000000000005" y="650" width="40" height="40" as="geometry"/>
                </mxCell>
                <mxCell id="280" value="&amp;gt;" style="whiteSpace=wrap;html=1;aspect=fixed;fontFamily=Verdana;fontSize=18;" vertex="1" parent="1">
                    <mxGeometry x="1720.0000000000005" y="700" width="40" height="40" as="geometry"/>
                </mxCell>
                <mxCell id="281" value="&amp;gt;" style="whiteSpace=wrap;html=1;aspect=fixed;fontFamily=Verdana;fontSize=18;" vertex="1" parent="1">
                    <mxGeometry x="1890.0000000000005" y="400" width="40" height="40" as="geometry"/>
                </mxCell>
                <mxCell id="282" value="&amp;gt;" style="whiteSpace=wrap;html=1;aspect=fixed;fontFamily=Verdana;fontSize=18;" vertex="1" parent="1">
                    <mxGeometry x="1890.0000000000005" y="450" width="40" height="40" as="geometry"/>
                </mxCell>
                <mxCell id="297" style="edgeStyle=none;html=1;" edge="1" parent="1" source="283">
                    <mxGeometry relative="1" as="geometry">
                        <mxPoint x="1980" y="520" as="targetPoint"/>
                    </mxGeometry>
                </mxCell>
                <mxCell id="283" value="" style="whiteSpace=wrap;html=1;aspect=fixed;fontFamily=Verdana;fontSize=18;" vertex="1" parent="1">
                    <mxGeometry x="1890.0000000000005" y="500" width="40" height="40" as="geometry"/>
                </mxCell>
                <mxCell id="298" style="edgeStyle=none;html=1;" edge="1" parent="1" source="285">
                    <mxGeometry relative="1" as="geometry">
                        <mxPoint x="2150" y="520" as="targetPoint"/>
                    </mxGeometry>
                </mxCell>
                <mxCell id="285" value="" style="whiteSpace=wrap;html=1;aspect=fixed;fontFamily=Verdana;fontSize=18;" vertex="1" parent="1">
                    <mxGeometry x="2060.0000000000005" y="500" width="40" height="40" as="geometry"/>
                </mxCell>
                <mxCell id="286" value="&amp;gt;" style="whiteSpace=wrap;html=1;aspect=fixed;fontFamily=Verdana;fontSize=18;" vertex="1" parent="1">
                    <mxGeometry x="2230.0000000000005" y="500" width="40" height="40" as="geometry"/>
                </mxCell>
                <mxCell id="307" style="edgeStyle=none;html=1;entryX=0;entryY=0.5;entryDx=0;entryDy=0;" edge="1" parent="1" source="162" target="167">
                    <mxGeometry relative="1" as="geometry"/>
                </mxCell>
                <mxCell id="308" style="edgeStyle=none;html=1;" edge="1" parent="1" source="144">
                    <mxGeometry relative="1" as="geometry">
                        <mxPoint x="1300" y="420" as="targetPoint"/>
                    </mxGeometry>
                </mxCell>
                <mxCell id="309" style="edgeStyle=none;html=1;" edge="1" parent="1" source="147">
                    <mxGeometry relative="1" as="geometry">
                        <mxPoint x="1300" y="470" as="targetPoint"/>
                    </mxGeometry>
                </mxCell>
                <mxCell id="310" style="edgeStyle=none;html=1;entryX=0;entryY=0.5;entryDx=0;entryDy=0;" edge="1" parent="1" source="150" target="205">
                    <mxGeometry relative="1" as="geometry"/>
                </mxCell>
                <mxCell id="311" style="edgeStyle=none;html=1;" edge="1" parent="1" source="153">
                    <mxGeometry relative="1" as="geometry">
                        <mxPoint x="1300" y="570" as="targetPoint"/>
                    </mxGeometry>
                </mxCell>
                <mxCell id="312" style="edgeStyle=none;html=1;" edge="1" parent="1" source="156">
                    <mxGeometry relative="1" as="geometry">
                        <mxPoint x="1300" y="620" as="targetPoint"/>
                    </mxGeometry>
                </mxCell>
                <mxCell id="313" style="edgeStyle=none;html=1;" edge="1" parent="1" source="159">
                    <mxGeometry relative="1" as="geometry">
                        <mxPoint x="1300" y="670" as="targetPoint"/>
                    </mxGeometry>
                </mxCell>
                <mxCell id="314" style="edgeStyle=none;html=1;entryX=0;entryY=0.5;entryDx=0;entryDy=0;" edge="1" parent="1" source="165" target="250">
                    <mxGeometry relative="1" as="geometry"/>
                </mxCell>
                <mxCell id="315" value="a" style="ellipse;whiteSpace=wrap;html=1;aspect=fixed;" vertex="1" parent="1">
                    <mxGeometry x="840" y="920" width="40" height="40" as="geometry"/>
                </mxCell>
                <mxCell id="317" value="b" style="ellipse;whiteSpace=wrap;html=1;aspect=fixed;" vertex="1" parent="1">
                    <mxGeometry x="920" y="880" width="40" height="40" as="geometry"/>
                </mxCell>
                <mxCell id="318" value="c" style="ellipse;whiteSpace=wrap;html=1;aspect=fixed;" vertex="1" parent="1">
                    <mxGeometry x="920" y="960" width="40" height="40" as="geometry"/>
                </mxCell>
                <mxCell id="319" value="d" style="ellipse;whiteSpace=wrap;html=1;aspect=fixed;" vertex="1" parent="1">
                    <mxGeometry x="1000" y="920" width="40" height="40" as="geometry"/>
                </mxCell>
                <mxCell id="320" value="h" style="ellipse;whiteSpace=wrap;html=1;aspect=fixed;" vertex="1" parent="1">
                    <mxGeometry x="1080" y="1000" width="40" height="40" as="geometry"/>
                </mxCell>
                <mxCell id="321" value="g" style="ellipse;whiteSpace=wrap;html=1;aspect=fixed;" vertex="1" parent="1">
                    <mxGeometry x="1160" y="960" width="40" height="40" as="geometry"/>
                </mxCell>
                <mxCell id="322" value="f" style="ellipse;whiteSpace=wrap;html=1;aspect=fixed;" vertex="1" parent="1">
                    <mxGeometry x="1160" y="880" width="40" height="40" as="geometry"/>
                </mxCell>
                <mxCell id="323" value="e" style="ellipse;whiteSpace=wrap;html=1;aspect=fixed;" vertex="1" parent="1">
                    <mxGeometry x="1080" y="840" width="40" height="40" as="geometry"/>
                </mxCell>
                <mxCell id="326" value="4" style="endArrow=none;html=1;fontSize=18;entryX=0.076;entryY=0.731;entryDx=0;entryDy=0;entryPerimeter=0;" edge="1" parent="1" source="315" target="317">
                    <mxGeometry width="50" height="50" relative="1" as="geometry">
                        <mxPoint x="1120" y="950" as="sourcePoint"/>
                        <mxPoint x="1170" y="900" as="targetPoint"/>
                    </mxGeometry>
                </mxCell>
                <mxCell id="327" value="3" style="endArrow=none;html=1;fontSize=18;exitX=1;exitY=1;exitDx=0;exitDy=0;entryX=0;entryY=0.5;entryDx=0;entryDy=0;" edge="1" parent="1" source="315" target="318">
                    <mxGeometry width="50" height="50" relative="1" as="geometry">
                        <mxPoint x="1120" y="950" as="sourcePoint"/>
                        <mxPoint x="1170" y="900" as="targetPoint"/>
                    </mxGeometry>
                </mxCell>
                <mxCell id="328" value="5" style="endArrow=none;html=1;fontSize=18;exitX=1;exitY=0.25;exitDx=0;exitDy=0;exitPerimeter=0;entryX=0;entryY=1;entryDx=0;entryDy=0;" edge="1" parent="1" source="318" target="319">
                    <mxGeometry width="50" height="50" relative="1" as="geometry">
                        <mxPoint x="1120" y="950" as="sourcePoint"/>
                        <mxPoint x="1170" y="900" as="targetPoint"/>
                    </mxGeometry>
                </mxCell>
                <mxCell id="330" value="4" style="endArrow=none;html=1;fontSize=18;exitX=1;exitY=1;exitDx=0;exitDy=0;entryX=0.25;entryY=0;entryDx=0;entryDy=0;entryPerimeter=0;" edge="1" parent="1" source="319" target="320">
                    <mxGeometry width="50" height="50" relative="1" as="geometry">
                        <mxPoint x="1120" y="950" as="sourcePoint"/>
                        <mxPoint x="1170" y="900" as="targetPoint"/>
                    </mxGeometry>
                </mxCell>
                <mxCell id="331" value="5" style="endArrow=none;html=1;fontSize=18;exitX=1;exitY=0.5;exitDx=0;exitDy=0;entryX=0;entryY=0.25;entryDx=0;entryDy=0;entryPerimeter=0;" edge="1" parent="1" source="319" target="321">
                    <mxGeometry width="50" height="50" relative="1" as="geometry">
                        <mxPoint x="1120" y="950" as="sourcePoint"/>
                        <mxPoint x="1170" y="900" as="targetPoint"/>
                    </mxGeometry>
                </mxCell>
                <mxCell id="332" value="2" style="endArrow=none;html=1;fontSize=18;exitX=0.5;exitY=0;exitDx=0;exitDy=0;entryX=0.5;entryY=1;entryDx=0;entryDy=0;" edge="1" parent="1" source="321" target="322">
                    <mxGeometry width="50" height="50" relative="1" as="geometry">
                        <mxPoint x="1120" y="950" as="sourcePoint"/>
                        <mxPoint x="1170" y="900" as="targetPoint"/>
                    </mxGeometry>
                </mxCell>
                <mxCell id="334" value="3" style="endArrow=none;html=1;fontSize=18;exitX=0.994;exitY=0.755;exitDx=0;exitDy=0;exitPerimeter=0;entryX=-0.029;entryY=0.315;entryDx=0;entryDy=0;entryPerimeter=0;" edge="1" parent="1" source="323" target="322">
                    <mxGeometry width="50" height="50" relative="1" as="geometry">
                        <mxPoint x="1120" y="950" as="sourcePoint"/>
                        <mxPoint x="1170" y="900" as="targetPoint"/>
                    </mxGeometry>
                </mxCell>
            </root>
        </mxGraphModel>
    </diagram>
</mxfile>